<mxfile host="app.diagrams.net" modified="2023-06-20T05:46:32.395Z" agent="Mozilla/5.0 (Macintosh; Intel Mac OS X 10_15_7) AppleWebKit/537.36 (KHTML, like Gecko) Chrome/114.0.0.0 Safari/537.36" etag="V8DOIb3EU6RHo4RQKhTe" version="21.3.3" type="device">
  <diagram id="NG80N5L15GEWs1DsO-dA" name="Page-1">
    <mxGraphModel dx="3816" dy="2464" grid="1" gridSize="10" guides="1" tooltips="1" connect="1" arrows="1" fold="1" page="1" pageScale="1" pageWidth="850" pageHeight="1100" math="0" shadow="0">
      <root>
        <mxCell id="0" />
        <mxCell id="1" parent="0" />
        <mxCell id="ZtmieHm3WJ9YWfHTulXI-1" value="" style="shape=cube;whiteSpace=wrap;html=1;boundedLbl=1;backgroundOutline=1;darkOpacity=0.05;darkOpacity2=0.1;flipH=1;size=110;" parent="1" vertex="1">
          <mxGeometry x="100" y="170" width="120" height="330" as="geometry" />
        </mxCell>
        <mxCell id="ZtmieHm3WJ9YWfHTulXI-2" value="" style="shape=cube;whiteSpace=wrap;html=1;boundedLbl=1;backgroundOutline=1;darkOpacity=0.05;darkOpacity2=0.1;flipH=1;size=110;" parent="1" vertex="1">
          <mxGeometry x="110" y="170" width="120" height="330" as="geometry" />
        </mxCell>
        <mxCell id="ZtmieHm3WJ9YWfHTulXI-3" value="" style="shape=cube;whiteSpace=wrap;html=1;boundedLbl=1;backgroundOutline=1;darkOpacity=0.05;darkOpacity2=0.1;flipH=1;size=110;" parent="1" vertex="1">
          <mxGeometry x="120" y="170" width="120" height="330" as="geometry" />
        </mxCell>
        <mxCell id="ZtmieHm3WJ9YWfHTulXI-4" value="" style="shape=cube;whiteSpace=wrap;html=1;boundedLbl=1;backgroundOutline=1;darkOpacity=0.05;darkOpacity2=0.1;flipH=1;size=110;" parent="1" vertex="1">
          <mxGeometry x="130" y="170" width="120" height="330" as="geometry" />
        </mxCell>
        <mxCell id="ZtmieHm3WJ9YWfHTulXI-5" value="" style="shape=cube;whiteSpace=wrap;html=1;boundedLbl=1;backgroundOutline=1;darkOpacity=0.05;darkOpacity2=0.1;flipH=1;size=110;" parent="1" vertex="1">
          <mxGeometry x="140" y="170" width="120" height="330" as="geometry" />
        </mxCell>
        <mxCell id="ZtmieHm3WJ9YWfHTulXI-6" value="" style="shape=cube;whiteSpace=wrap;html=1;boundedLbl=1;backgroundOutline=1;darkOpacity=0.05;darkOpacity2=0.1;flipH=1;size=110;" parent="1" vertex="1">
          <mxGeometry x="150" y="170" width="120" height="330" as="geometry" />
        </mxCell>
        <mxCell id="ZtmieHm3WJ9YWfHTulXI-7" value="" style="shape=cube;whiteSpace=wrap;html=1;boundedLbl=1;backgroundOutline=1;darkOpacity=0.05;darkOpacity2=0.1;flipH=1;size=110;" parent="1" vertex="1">
          <mxGeometry x="160" y="170" width="120" height="330" as="geometry" />
        </mxCell>
        <mxCell id="ZtmieHm3WJ9YWfHTulXI-8" value="" style="shape=cube;whiteSpace=wrap;html=1;boundedLbl=1;backgroundOutline=1;darkOpacity=0.05;darkOpacity2=0.1;flipH=1;size=110;" parent="1" vertex="1">
          <mxGeometry x="170" y="170" width="120" height="330" as="geometry" />
        </mxCell>
        <mxCell id="ZtmieHm3WJ9YWfHTulXI-9" value="" style="shape=cube;whiteSpace=wrap;html=1;boundedLbl=1;backgroundOutline=1;darkOpacity=0.05;darkOpacity2=0.1;flipH=1;size=110;" parent="1" vertex="1">
          <mxGeometry x="180" y="170" width="120" height="330" as="geometry" />
        </mxCell>
        <mxCell id="ZtmieHm3WJ9YWfHTulXI-10" value="" style="shape=cube;whiteSpace=wrap;html=1;boundedLbl=1;backgroundOutline=1;darkOpacity=0.05;darkOpacity2=0.1;flipH=1;size=110;" parent="1" vertex="1">
          <mxGeometry x="190" y="170" width="120" height="330" as="geometry" />
        </mxCell>
        <mxCell id="ZtmieHm3WJ9YWfHTulXI-11" value="" style="shape=cube;whiteSpace=wrap;html=1;boundedLbl=1;backgroundOutline=1;darkOpacity=0.05;darkOpacity2=0.1;flipH=1;size=110;" parent="1" vertex="1">
          <mxGeometry x="200" y="170" width="120" height="330" as="geometry" />
        </mxCell>
        <mxCell id="ZtmieHm3WJ9YWfHTulXI-12" value="" style="shape=cube;whiteSpace=wrap;html=1;boundedLbl=1;backgroundOutline=1;darkOpacity=0.05;darkOpacity2=0.1;flipH=1;size=110;" parent="1" vertex="1">
          <mxGeometry x="210" y="170" width="120" height="330" as="geometry" />
        </mxCell>
        <mxCell id="ZtmieHm3WJ9YWfHTulXI-13" value="" style="shape=cube;whiteSpace=wrap;html=1;boundedLbl=1;backgroundOutline=1;darkOpacity=0.05;darkOpacity2=0.1;flipH=1;size=110;" parent="1" vertex="1">
          <mxGeometry x="220" y="170" width="120" height="330" as="geometry" />
        </mxCell>
        <mxCell id="ZtmieHm3WJ9YWfHTulXI-14" value="" style="shape=cube;whiteSpace=wrap;html=1;boundedLbl=1;backgroundOutline=1;darkOpacity=0.05;darkOpacity2=0.1;flipH=1;size=110;" parent="1" vertex="1">
          <mxGeometry x="230" y="170" width="120" height="330" as="geometry" />
        </mxCell>
        <mxCell id="ZtmieHm3WJ9YWfHTulXI-15" value="" style="shape=cube;whiteSpace=wrap;html=1;boundedLbl=1;backgroundOutline=1;darkOpacity=0.05;darkOpacity2=0.1;flipH=1;size=110;" parent="1" vertex="1">
          <mxGeometry x="240" y="170" width="120" height="330" as="geometry" />
        </mxCell>
        <mxCell id="ZtmieHm3WJ9YWfHTulXI-16" value="" style="shape=cube;whiteSpace=wrap;html=1;boundedLbl=1;backgroundOutline=1;darkOpacity=0.05;darkOpacity2=0.1;flipH=1;size=110;" parent="1" vertex="1">
          <mxGeometry x="250" y="170" width="120" height="330" as="geometry" />
        </mxCell>
        <mxCell id="ZtmieHm3WJ9YWfHTulXI-17" value="&lt;font style=&quot;font-size: 40px;&quot;&gt;Input Feature Maps&lt;/font&gt;" style="text;html=1;strokeColor=none;fillColor=none;align=center;verticalAlign=middle;whiteSpace=wrap;rounded=0;fontSize=27;" parent="1" vertex="1">
          <mxGeometry x="70" y="110" width="380" height="30" as="geometry" />
        </mxCell>
        <mxCell id="ZtmieHm3WJ9YWfHTulXI-19" value="" style="endArrow=classic;html=1;rounded=0;fontSize=40;strokeWidth=8;entryX=0;entryY=0.5;entryDx=0;entryDy=0;" parent="1" target="ZtmieHm3WJ9YWfHTulXI-49" edge="1">
          <mxGeometry width="50" height="50" relative="1" as="geometry">
            <mxPoint x="320" y="340" as="sourcePoint" />
            <mxPoint x="2020" y="340" as="targetPoint" />
            <Array as="points" />
          </mxGeometry>
        </mxCell>
        <mxCell id="ZtmieHm3WJ9YWfHTulXI-20" value="Global Average Pooling" style="text;html=1;strokeColor=none;fillColor=#FF8000;align=center;verticalAlign=middle;whiteSpace=wrap;rounded=0;fontSize=40;rotation=-90;" parent="1" vertex="1">
          <mxGeometry x="472.5" y="517.5" width="410" height="145" as="geometry" />
        </mxCell>
        <mxCell id="ZtmieHm3WJ9YWfHTulXI-21" value="" style="endArrow=classic;html=1;rounded=0;fontSize=40;strokeWidth=8;" parent="1" edge="1">
          <mxGeometry width="50" height="50" relative="1" as="geometry">
            <mxPoint x="520" y="340" as="sourcePoint" />
            <mxPoint x="600" y="610" as="targetPoint" />
            <Array as="points">
              <mxPoint x="520" y="610" />
            </Array>
          </mxGeometry>
        </mxCell>
        <mxCell id="ZtmieHm3WJ9YWfHTulXI-22" value="&lt;span style=&quot;font-size: 40px;&quot;&gt;Danse Layer (N/4)&lt;br style=&quot;font-size: 40px;&quot;&gt;&lt;/span&gt;" style="text;html=1;strokeColor=none;fillColor=#B3B3B3;align=center;verticalAlign=middle;whiteSpace=wrap;rounded=0;fontSize=40;rotation=-90;" parent="1" vertex="1">
          <mxGeometry x="690" y="524" width="412" height="138" as="geometry" />
        </mxCell>
        <mxCell id="ZtmieHm3WJ9YWfHTulXI-31" value="" style="shape=cube;whiteSpace=wrap;html=1;boundedLbl=1;backgroundOutline=1;darkOpacity=0.05;darkOpacity2=0.1;flipH=1;size=30;fillColor=#00FF80;" parent="1" vertex="1">
          <mxGeometry x="1930" y="549" width="41" height="118" as="geometry" />
        </mxCell>
        <mxCell id="ZtmieHm3WJ9YWfHTulXI-32" value="" style="shape=cube;whiteSpace=wrap;html=1;boundedLbl=1;backgroundOutline=1;darkOpacity=0.05;darkOpacity2=0.1;flipH=1;size=30;fillColor=#FF0080;" parent="1" vertex="1">
          <mxGeometry x="1940" y="549" width="41" height="118" as="geometry" />
        </mxCell>
        <mxCell id="ZtmieHm3WJ9YWfHTulXI-33" value="" style="shape=cube;whiteSpace=wrap;html=1;boundedLbl=1;backgroundOutline=1;darkOpacity=0.05;darkOpacity2=0.1;flipH=1;size=30;fillColor=#FFFF33;" parent="1" vertex="1">
          <mxGeometry x="1950" y="549" width="41" height="118" as="geometry" />
        </mxCell>
        <mxCell id="ZtmieHm3WJ9YWfHTulXI-34" value="" style="shape=cube;whiteSpace=wrap;html=1;boundedLbl=1;backgroundOutline=1;darkOpacity=0.05;darkOpacity2=0.1;flipH=1;size=30;fillColor=#0000FF;" parent="1" vertex="1">
          <mxGeometry x="1960" y="549" width="41" height="118" as="geometry" />
        </mxCell>
        <mxCell id="ZtmieHm3WJ9YWfHTulXI-35" value="" style="shape=cube;whiteSpace=wrap;html=1;boundedLbl=1;backgroundOutline=1;darkOpacity=0.05;darkOpacity2=0.1;flipH=1;size=30;fillColor=#4D4D4D;" parent="1" vertex="1">
          <mxGeometry x="1970" y="549" width="41" height="118" as="geometry" />
        </mxCell>
        <mxCell id="ZtmieHm3WJ9YWfHTulXI-36" value="" style="shape=cube;whiteSpace=wrap;html=1;boundedLbl=1;backgroundOutline=1;darkOpacity=0.05;darkOpacity2=0.1;flipH=1;size=30;fillColor=#FFFF66;" parent="1" vertex="1">
          <mxGeometry x="1980" y="549" width="41" height="118" as="geometry" />
        </mxCell>
        <mxCell id="ZtmieHm3WJ9YWfHTulXI-37" value="" style="shape=cube;whiteSpace=wrap;html=1;boundedLbl=1;backgroundOutline=1;darkOpacity=0.05;darkOpacity2=0.1;flipH=1;size=30;fillColor=#9933FF;" parent="1" vertex="1">
          <mxGeometry x="1990" y="549" width="41" height="118" as="geometry" />
        </mxCell>
        <mxCell id="ZtmieHm3WJ9YWfHTulXI-38" value="" style="shape=cube;whiteSpace=wrap;html=1;boundedLbl=1;backgroundOutline=1;darkOpacity=0.05;darkOpacity2=0.1;flipH=1;size=30;fillColor=#67AB9F;" parent="1" vertex="1">
          <mxGeometry x="2000" y="549" width="41" height="118" as="geometry" />
        </mxCell>
        <mxCell id="ZtmieHm3WJ9YWfHTulXI-39" value="" style="shape=cube;whiteSpace=wrap;html=1;boundedLbl=1;backgroundOutline=1;darkOpacity=0.05;darkOpacity2=0.1;flipH=1;size=30;fillColor=#FF8000;" parent="1" vertex="1">
          <mxGeometry x="2010" y="549" width="41" height="118" as="geometry" />
        </mxCell>
        <mxCell id="ZtmieHm3WJ9YWfHTulXI-40" value="" style="shape=cube;whiteSpace=wrap;html=1;boundedLbl=1;backgroundOutline=1;darkOpacity=0.05;darkOpacity2=0.1;flipH=1;size=30;fillColor=#00FFFF;" parent="1" vertex="1">
          <mxGeometry x="2020" y="549" width="41" height="118" as="geometry" />
        </mxCell>
        <mxCell id="ZtmieHm3WJ9YWfHTulXI-41" value="" style="shape=cube;whiteSpace=wrap;html=1;boundedLbl=1;backgroundOutline=1;darkOpacity=0.05;darkOpacity2=0.1;flipH=1;size=30;fillColor=#9933FF;" parent="1" vertex="1">
          <mxGeometry x="2030" y="549" width="41" height="118" as="geometry" />
        </mxCell>
        <mxCell id="ZtmieHm3WJ9YWfHTulXI-42" value="" style="shape=cube;whiteSpace=wrap;html=1;boundedLbl=1;backgroundOutline=1;darkOpacity=0.05;darkOpacity2=0.1;flipH=1;size=30;fillColor=#B3B3B3;" parent="1" vertex="1">
          <mxGeometry x="2040" y="549" width="41" height="118" as="geometry" />
        </mxCell>
        <mxCell id="ZtmieHm3WJ9YWfHTulXI-43" value="" style="shape=cube;whiteSpace=wrap;html=1;boundedLbl=1;backgroundOutline=1;darkOpacity=0.05;darkOpacity2=0.1;flipH=1;size=30;fillColor=#FF0000;" parent="1" vertex="1">
          <mxGeometry x="2050" y="549" width="41" height="118" as="geometry" />
        </mxCell>
        <mxCell id="ZtmieHm3WJ9YWfHTulXI-44" value="" style="shape=cube;whiteSpace=wrap;html=1;boundedLbl=1;backgroundOutline=1;darkOpacity=0.05;darkOpacity2=0.1;flipH=1;size=30;fillColor=#00FF00;" parent="1" vertex="1">
          <mxGeometry x="2060" y="549" width="41" height="118" as="geometry" />
        </mxCell>
        <mxCell id="ZtmieHm3WJ9YWfHTulXI-45" value="" style="shape=cube;whiteSpace=wrap;html=1;boundedLbl=1;backgroundOutline=1;darkOpacity=0.05;darkOpacity2=0.1;flipH=1;size=30;fillColor=#4D9900;" parent="1" vertex="1">
          <mxGeometry x="2070" y="549" width="41" height="118" as="geometry" />
        </mxCell>
        <mxCell id="ZtmieHm3WJ9YWfHTulXI-46" value="" style="shape=cube;whiteSpace=wrap;html=1;boundedLbl=1;backgroundOutline=1;darkOpacity=0.05;darkOpacity2=0.1;flipH=1;size=30;" parent="1" vertex="1">
          <mxGeometry x="2080" y="549" width="41" height="118" as="geometry" />
        </mxCell>
        <mxCell id="ZtmieHm3WJ9YWfHTulXI-47" value="" style="endArrow=classic;html=1;rounded=0;fontSize=40;strokeWidth=8;" parent="1" edge="1">
          <mxGeometry width="50" height="50" relative="1" as="geometry">
            <mxPoint x="1780" y="600" as="sourcePoint" />
            <mxPoint x="1920" y="600" as="targetPoint" />
            <Array as="points" />
          </mxGeometry>
        </mxCell>
        <mxCell id="ZtmieHm3WJ9YWfHTulXI-48" value="&lt;font style=&quot;font-size: 40px;&quot;&gt;Channel Attention&lt;br&gt;Vector&lt;/font&gt;" style="text;html=1;strokeColor=none;fillColor=none;align=center;verticalAlign=middle;whiteSpace=wrap;rounded=0;fontSize=27;" parent="1" vertex="1">
          <mxGeometry x="1868.25" y="489" width="344.5" height="30" as="geometry" />
        </mxCell>
        <mxCell id="ZtmieHm3WJ9YWfHTulXI-49" value="X" style="ellipse;whiteSpace=wrap;html=1;aspect=fixed;fontSize=56;fillColor=none;strokeWidth=6;" parent="1" vertex="1">
          <mxGeometry x="2250" y="299" width="80" height="80" as="geometry" />
        </mxCell>
        <mxCell id="ZtmieHm3WJ9YWfHTulXI-50" value="" style="endArrow=classic;html=1;rounded=0;fontSize=40;strokeWidth=8;entryX=0.5;entryY=1;entryDx=0;entryDy=0;" parent="1" target="ZtmieHm3WJ9YWfHTulXI-49" edge="1">
          <mxGeometry width="50" height="50" relative="1" as="geometry">
            <mxPoint x="2140" y="598.9999999999998" as="sourcePoint" />
            <mxPoint x="2220" y="599.3000000000002" as="targetPoint" />
            <Array as="points">
              <mxPoint x="2290" y="599" />
            </Array>
          </mxGeometry>
        </mxCell>
        <mxCell id="ZtmieHm3WJ9YWfHTulXI-51" value="" style="shape=cube;whiteSpace=wrap;html=1;boundedLbl=1;backgroundOutline=1;darkOpacity=0.05;darkOpacity2=0.1;flipH=1;size=110;fillColor=#00FF80;" parent="1" vertex="1">
          <mxGeometry x="2470" y="174" width="120" height="330" as="geometry" />
        </mxCell>
        <mxCell id="ZtmieHm3WJ9YWfHTulXI-52" value="" style="shape=cube;whiteSpace=wrap;html=1;boundedLbl=1;backgroundOutline=1;darkOpacity=0.05;darkOpacity2=0.1;flipH=1;size=110;fillColor=#FF0080;" parent="1" vertex="1">
          <mxGeometry x="2480" y="174" width="120" height="330" as="geometry" />
        </mxCell>
        <mxCell id="ZtmieHm3WJ9YWfHTulXI-53" value="" style="shape=cube;whiteSpace=wrap;html=1;boundedLbl=1;backgroundOutline=1;darkOpacity=0.05;darkOpacity2=0.1;flipH=1;size=110;fillColor=#FFFF33;" parent="1" vertex="1">
          <mxGeometry x="2490" y="174" width="120" height="330" as="geometry" />
        </mxCell>
        <mxCell id="ZtmieHm3WJ9YWfHTulXI-54" value="" style="shape=cube;whiteSpace=wrap;html=1;boundedLbl=1;backgroundOutline=1;darkOpacity=0.05;darkOpacity2=0.1;flipH=1;size=110;fillColor=#0000FF;" parent="1" vertex="1">
          <mxGeometry x="2500" y="174" width="120" height="330" as="geometry" />
        </mxCell>
        <mxCell id="ZtmieHm3WJ9YWfHTulXI-55" value="" style="shape=cube;whiteSpace=wrap;html=1;boundedLbl=1;backgroundOutline=1;darkOpacity=0.05;darkOpacity2=0.1;flipH=1;size=110;fillColor=#4D4D4D;" parent="1" vertex="1">
          <mxGeometry x="2510" y="174" width="120" height="330" as="geometry" />
        </mxCell>
        <mxCell id="ZtmieHm3WJ9YWfHTulXI-56" value="" style="shape=cube;whiteSpace=wrap;html=1;boundedLbl=1;backgroundOutline=1;darkOpacity=0.05;darkOpacity2=0.1;flipH=1;size=110;fillColor=#FFFF66;" parent="1" vertex="1">
          <mxGeometry x="2520" y="174" width="120" height="330" as="geometry" />
        </mxCell>
        <mxCell id="ZtmieHm3WJ9YWfHTulXI-57" value="" style="shape=cube;whiteSpace=wrap;html=1;boundedLbl=1;backgroundOutline=1;darkOpacity=0.05;darkOpacity2=0.1;flipH=1;size=110;fillColor=#9933FF;" parent="1" vertex="1">
          <mxGeometry x="2530" y="174" width="120" height="330" as="geometry" />
        </mxCell>
        <mxCell id="ZtmieHm3WJ9YWfHTulXI-58" value="" style="shape=cube;whiteSpace=wrap;html=1;boundedLbl=1;backgroundOutline=1;darkOpacity=0.05;darkOpacity2=0.1;flipH=1;size=110;fillColor=#67AB9F;" parent="1" vertex="1">
          <mxGeometry x="2540" y="174" width="120" height="330" as="geometry" />
        </mxCell>
        <mxCell id="ZtmieHm3WJ9YWfHTulXI-59" value="" style="shape=cube;whiteSpace=wrap;html=1;boundedLbl=1;backgroundOutline=1;darkOpacity=0.05;darkOpacity2=0.1;flipH=1;size=110;fillColor=#FF8000;" parent="1" vertex="1">
          <mxGeometry x="2550" y="174" width="120" height="330" as="geometry" />
        </mxCell>
        <mxCell id="ZtmieHm3WJ9YWfHTulXI-60" value="" style="shape=cube;whiteSpace=wrap;html=1;boundedLbl=1;backgroundOutline=1;darkOpacity=0.05;darkOpacity2=0.1;flipH=1;size=110;fillColor=#00FFFF;" parent="1" vertex="1">
          <mxGeometry x="2560" y="174" width="120" height="330" as="geometry" />
        </mxCell>
        <mxCell id="ZtmieHm3WJ9YWfHTulXI-61" value="" style="shape=cube;whiteSpace=wrap;html=1;boundedLbl=1;backgroundOutline=1;darkOpacity=0.05;darkOpacity2=0.1;flipH=1;size=110;fillColor=#6600CC;" parent="1" vertex="1">
          <mxGeometry x="2570" y="174" width="120" height="330" as="geometry" />
        </mxCell>
        <mxCell id="ZtmieHm3WJ9YWfHTulXI-62" value="" style="shape=cube;whiteSpace=wrap;html=1;boundedLbl=1;backgroundOutline=1;darkOpacity=0.05;darkOpacity2=0.1;flipH=1;size=110;fillColor=#B3B3B3;" parent="1" vertex="1">
          <mxGeometry x="2580" y="174" width="120" height="330" as="geometry" />
        </mxCell>
        <mxCell id="ZtmieHm3WJ9YWfHTulXI-63" value="" style="shape=cube;whiteSpace=wrap;html=1;boundedLbl=1;backgroundOutline=1;darkOpacity=0.05;darkOpacity2=0.1;flipH=1;size=110;fillColor=#FF0000;" parent="1" vertex="1">
          <mxGeometry x="2590" y="174" width="120" height="330" as="geometry" />
        </mxCell>
        <mxCell id="ZtmieHm3WJ9YWfHTulXI-64" value="" style="shape=cube;whiteSpace=wrap;html=1;boundedLbl=1;backgroundOutline=1;darkOpacity=0.05;darkOpacity2=0.1;flipH=1;size=110;fillColor=#00FF00;" parent="1" vertex="1">
          <mxGeometry x="2600" y="174" width="120" height="330" as="geometry" />
        </mxCell>
        <mxCell id="ZtmieHm3WJ9YWfHTulXI-65" value="" style="shape=cube;whiteSpace=wrap;html=1;boundedLbl=1;backgroundOutline=1;darkOpacity=0.05;darkOpacity2=0.1;flipH=1;size=110;fillColor=#4D9900;" parent="1" vertex="1">
          <mxGeometry x="2610" y="174" width="120" height="330" as="geometry" />
        </mxCell>
        <mxCell id="ZtmieHm3WJ9YWfHTulXI-66" value="" style="shape=cube;whiteSpace=wrap;html=1;boundedLbl=1;backgroundOutline=1;darkOpacity=0.05;darkOpacity2=0.1;flipH=1;size=110;" parent="1" vertex="1">
          <mxGeometry x="2620" y="174" width="120" height="330" as="geometry" />
        </mxCell>
        <mxCell id="ZtmieHm3WJ9YWfHTulXI-67" value="" style="endArrow=classic;html=1;rounded=0;fontSize=28;strokeWidth=8;" parent="1" edge="1">
          <mxGeometry width="50" height="50" relative="1" as="geometry">
            <mxPoint x="2340" y="339" as="sourcePoint" />
            <mxPoint x="2440" y="339" as="targetPoint" />
          </mxGeometry>
        </mxCell>
        <mxCell id="ZtmieHm3WJ9YWfHTulXI-68" value="&lt;font style=&quot;font-size: 40px;&quot;&gt;Weighted&lt;br&gt;Feature Maps&lt;/font&gt;" style="text;html=1;strokeColor=none;fillColor=none;align=center;verticalAlign=middle;whiteSpace=wrap;rounded=0;fontSize=27;" parent="1" vertex="1">
          <mxGeometry x="2415" y="100" width="450" height="30" as="geometry" />
        </mxCell>
        <mxCell id="SAHcmxxOU2w-u3swK_y4-1" value="&lt;span style=&quot;font-size: 40px;&quot;&gt;ReLU &lt;br style=&quot;font-size: 40px;&quot;&gt;Activation Function&lt;br style=&quot;font-size: 40px;&quot;&gt;&lt;/span&gt;" style="text;html=1;strokeColor=none;fillColor=#00FF00;align=center;verticalAlign=middle;whiteSpace=wrap;rounded=0;fontSize=40;rotation=-90;" parent="1" vertex="1">
          <mxGeometry x="1090" y="528" width="410" height="129" as="geometry" />
        </mxCell>
        <mxCell id="SAHcmxxOU2w-u3swK_y4-5" value="" style="endArrow=classic;startArrow=classic;html=1;rounded=0;fontSize=40;strokeWidth=4;" parent="1" edge="1">
          <mxGeometry width="50" height="50" relative="1" as="geometry">
            <mxPoint x="100" y="520" as="sourcePoint" />
            <mxPoint x="260" y="520" as="targetPoint" />
          </mxGeometry>
        </mxCell>
        <mxCell id="SAHcmxxOU2w-u3swK_y4-6" value="N channels" style="text;html=1;strokeColor=none;fillColor=none;align=center;verticalAlign=middle;whiteSpace=wrap;rounded=0;dashed=1;fontSize=40;" parent="1" vertex="1">
          <mxGeometry x="75" y="535" width="250" height="30" as="geometry" />
        </mxCell>
        <mxCell id="SAHcmxxOU2w-u3swK_y4-7" value="" style="endArrow=classic;startArrow=classic;html=1;rounded=0;fontSize=40;strokeWidth=4;" parent="1" edge="1">
          <mxGeometry width="50" height="50" relative="1" as="geometry">
            <mxPoint x="1930.5" y="700" as="sourcePoint" />
            <mxPoint x="2090.5" y="700" as="targetPoint" />
          </mxGeometry>
        </mxCell>
        <mxCell id="SAHcmxxOU2w-u3swK_y4-8" value="N channels" style="text;html=1;strokeColor=none;fillColor=none;align=center;verticalAlign=middle;whiteSpace=wrap;rounded=0;dashed=1;fontSize=40;" parent="1" vertex="1">
          <mxGeometry x="1905.5" y="715" width="250" height="30" as="geometry" />
        </mxCell>
        <mxCell id="SAHcmxxOU2w-u3swK_y4-9" value="" style="endArrow=classic;startArrow=classic;html=1;rounded=0;fontSize=40;strokeWidth=4;" parent="1" edge="1">
          <mxGeometry width="50" height="50" relative="1" as="geometry">
            <mxPoint x="2470" y="535" as="sourcePoint" />
            <mxPoint x="2630" y="535" as="targetPoint" />
          </mxGeometry>
        </mxCell>
        <mxCell id="SAHcmxxOU2w-u3swK_y4-10" value="N channels" style="text;html=1;strokeColor=none;fillColor=none;align=center;verticalAlign=middle;whiteSpace=wrap;rounded=0;dashed=1;fontSize=40;" parent="1" vertex="1">
          <mxGeometry x="2445" y="550" width="250" height="30" as="geometry" />
        </mxCell>
        <mxCell id="Dxljv1eXZKVvKmB7Pe06-2" value="&lt;span style=&quot;font-size: 40px;&quot;&gt;Sigmoid&lt;br style=&quot;font-size: 40px;&quot;&gt;&amp;nbsp;Activation Function&lt;br style=&quot;font-size: 40px;&quot;&gt;&lt;/span&gt;" style="text;html=1;strokeColor=none;fillColor=#00FF00;align=center;verticalAlign=middle;whiteSpace=wrap;rounded=0;fontSize=40;rotation=-90;" vertex="1" parent="1">
          <mxGeometry x="1500" y="528.88" width="410" height="131.25" as="geometry" />
        </mxCell>
        <mxCell id="Dxljv1eXZKVvKmB7Pe06-3" value="&lt;span style=&quot;font-size: 40px;&quot;&gt;Danse Layer (N)&lt;br style=&quot;font-size: 40px;&quot;&gt;&lt;/span&gt;" style="text;html=1;strokeColor=none;fillColor=#B3B3B3;align=center;verticalAlign=middle;whiteSpace=wrap;rounded=0;fontSize=40;rotation=-90;" vertex="1" parent="1">
          <mxGeometry x="1292.5" y="530.5" width="412" height="125" as="geometry" />
        </mxCell>
        <mxCell id="Dxljv1eXZKVvKmB7Pe06-4" value="&lt;span style=&quot;font-size: 40px;&quot;&gt;Batch Nomalization Layer&lt;br style=&quot;font-size: 40px;&quot;&gt;&lt;/span&gt;" style="text;html=1;strokeColor=none;fillColor=#33FFFF;align=center;verticalAlign=middle;whiteSpace=wrap;rounded=0;fontSize=40;rotation=-90;" vertex="1" parent="1">
          <mxGeometry x="892" y="532" width="412" height="125" as="geometry" />
        </mxCell>
        <mxCell id="Dxljv1eXZKVvKmB7Pe06-6" value="" style="endArrow=classic;html=1;rounded=0;fontSize=40;strokeWidth=8;" edge="1" parent="1">
          <mxGeometry width="50" height="50" relative="1" as="geometry">
            <mxPoint x="759" y="610.58" as="sourcePoint" />
            <mxPoint x="821" y="611" as="targetPoint" />
            <Array as="points">
              <mxPoint x="799" y="611" />
            </Array>
          </mxGeometry>
        </mxCell>
        <mxCell id="Dxljv1eXZKVvKmB7Pe06-7" value="" style="endArrow=classic;html=1;rounded=0;fontSize=40;strokeWidth=8;" edge="1" parent="1">
          <mxGeometry width="50" height="50" relative="1" as="geometry">
            <mxPoint x="969" y="611.58" as="sourcePoint" />
            <mxPoint x="1031" y="612" as="targetPoint" />
            <Array as="points">
              <mxPoint x="1009" y="612" />
            </Array>
          </mxGeometry>
        </mxCell>
        <mxCell id="Dxljv1eXZKVvKmB7Pe06-8" value="" style="endArrow=classic;html=1;rounded=0;fontSize=40;strokeWidth=8;" edge="1" parent="1">
          <mxGeometry width="50" height="50" relative="1" as="geometry">
            <mxPoint x="1165" y="611.58" as="sourcePoint" />
            <mxPoint x="1227" y="612" as="targetPoint" />
            <Array as="points">
              <mxPoint x="1205" y="612" />
            </Array>
          </mxGeometry>
        </mxCell>
        <mxCell id="Dxljv1eXZKVvKmB7Pe06-9" value="" style="endArrow=classic;html=1;rounded=0;fontSize=40;strokeWidth=8;" edge="1" parent="1">
          <mxGeometry width="50" height="50" relative="1" as="geometry">
            <mxPoint x="1365" y="609.58" as="sourcePoint" />
            <mxPoint x="1427" y="610" as="targetPoint" />
            <Array as="points">
              <mxPoint x="1405" y="610" />
            </Array>
          </mxGeometry>
        </mxCell>
        <mxCell id="Dxljv1eXZKVvKmB7Pe06-10" value="" style="endArrow=classic;html=1;rounded=0;fontSize=40;strokeWidth=8;" edge="1" parent="1">
          <mxGeometry width="50" height="50" relative="1" as="geometry">
            <mxPoint x="1568" y="607.58" as="sourcePoint" />
            <mxPoint x="1630" y="608" as="targetPoint" />
            <Array as="points">
              <mxPoint x="1608" y="608" />
            </Array>
          </mxGeometry>
        </mxCell>
      </root>
    </mxGraphModel>
  </diagram>
</mxfile>
